<?xml version="1.0" encoding="iso-8859-1"?>
<!-- Generator: Adobe Illustrator 19.0.0, SVG Export Plug-In . SVG Version: 6.00 Build 0)  -->
<svg xmlns="http://www.w3.org/2000/svg" xmlns:xlink="http://www.w3.org/1999/xlink" version="1.1" id="Layer_1" x="0px" y="0px" viewBox="0 0 408.989 408.989" style="enable-background:new 0 0 408.989 408.989;" xml:space="preserve" width="512" height="512">
<g>
	<path style="fill:#E09B2D;" d="M95.891,137.943c-1.05,3.53-2.97,6.85-5.76,9.63l-1.05,1.06l-1.06,1.05   c-8.98,8.98-23.54,8.98-32.53,0l-41.27-41.27c-8.98-8.98-8.98-23.54,0-32.53l2.11-2.11c2.79-2.79,6.11-4.7,9.64-5.75   c7.84-2.37,16.7-0.44,22.89,5.75l41.27,41.27C96.331,121.244,98.26,130.103,95.891,137.943z"/>
	<path style="fill:#F7B239;" d="M95.891,137.943c-7.85,2.36-16.7,0.43-22.9-5.76l-41.27-41.27c-6.19-6.19-8.12-15.05-5.75-22.89   c7.84-2.37,16.7-0.44,22.89,5.75l41.27,41.27C96.331,121.244,98.26,130.103,95.891,137.943z"/>
	<path style="fill:#F95428;" d="M131.68,191.224h269.81c0,56.9-30.85,106.6-76.75,133.27H170.16   c-45.89-26.67-76.74-76.37-76.74-133.27H131.68z"/>
	<path style="fill:#E54728;" d="M182.424,191.224H131.68H93.42c0,56.9,30.85,106.6,76.74,133.27h89.003   C213.274,297.824,182.424,248.123,182.424,191.224z"/>
	<path style="fill:#E6E6E6;" d="M376.98,324.494v2.14c0,18.15-14.72,32.87-32.87,32.87H150.79c-18.15,0-32.87-14.72-32.87-32.87   v-2.14h52.24h154.58H376.98z"/>
	<path style="fill:#CCCCCC;" d="M175.92,326.634v-2.14h-5.76h-52.24v2.14c0,18.15,14.72,32.87,32.87,32.87h58   C190.641,359.504,175.92,344.784,175.92,326.634z"/>
	<path style="fill:#FFFFFF;" d="M313.192,312.108c-2.585,0-5.1-1.337-6.492-3.733c-2.081-3.582-0.865-8.172,2.717-10.253   c23.943-13.912,42.756-35.847,52.972-61.763c1.519-3.854,5.875-5.747,9.728-4.227c3.854,1.519,5.746,5.875,4.227,9.728   c-11.449,29.044-32.542,53.631-59.391,69.232C315.768,311.781,314.471,312.108,313.192,312.108z"/>
	<circle style="fill:#FFFFFF;" cx="376.332" cy="214.152" r="7.5"/>
	<g>
		<path style="fill:#333333;" d="M386.792,272.996c14.521-24.693,22.197-52.968,22.197-81.768c0-4.142-3.358-7.5-7.5-7.5H134.785    l-35.516-35.516c3.319-4.964,5.102-10.797,5.102-16.903c0-8.147-3.173-15.806-8.934-21.567L54.165,68.471    c-11.892-11.891-31.241-11.893-43.134,0l-2.113,2.113c-11.892,11.892-11.892,31.241,0,43.133l41.272,41.272    c5.761,5.761,13.42,8.933,21.566,8.933c6.108,0,11.941-1.783,16.906-5.103l24.909,24.909H93.419c-4.142,0-7.5,3.358-7.5,7.5    c0,28.8,7.676,57.075,22.197,81.768c9.914,16.858,22.838,31.768,37.993,43.999h-28.187c-4.142,0-7.5,3.358-7.5,7.5v2.136    c0,22.261,18.111,40.372,40.373,40.372H344.11c22.261,0,40.372-18.111,40.372-40.372v-2.136c0-4.142-3.358-7.5-7.5-7.5h-28.184    C363.953,304.764,376.877,289.854,386.792,272.996z M71.757,148.923c-4.14,0-8.032-1.612-10.96-4.54l-41.272-41.272    c-6.043-6.043-6.043-15.877,0-21.921l2.113-2.113c3.022-3.022,6.991-4.532,10.96-4.532c3.969,0,7.938,1.511,10.96,4.532    l41.272,41.272c2.928,2.928,4.54,6.82,4.54,10.96s-1.612,8.032-4.54,10.96l0,0l-2.113,2.113    C79.79,147.31,75.898,148.923,71.757,148.923z M344.11,352.003H150.796c-12.15,0-22.333-8.585-24.802-20.008h242.917    C366.443,343.417,356.26,352.003,344.11,352.003z M322.658,316.995H172.25c-21.064-12.626-38.748-30.422-51.204-51.603    c-11.904-20.243-18.735-43.148-19.936-66.664h292.687c-1.2,23.516-8.031,46.421-19.936,66.664    C361.406,286.573,343.722,304.369,322.658,316.995z"/>
		<path style="fill:#333333;" d="M252.79,147.897c0,4.142,3.358,7.5,7.5,7.5s7.5-3.358,7.5-7.5c0-26.441-6.958-39.778-13.686-52.675    c-6.164-11.814-11.985-22.972-11.985-45.736c0-4.142-3.358-7.5-7.5-7.5s-7.5,3.358-7.5,7.5c0,26.441,6.958,39.778,13.686,52.675    C246.968,113.975,252.79,125.133,252.79,147.897z"/>
		<path style="fill:#333333;" d="M208.99,147.897c0,4.142,3.358,7.5,7.5,7.5s7.5-3.358,7.5-7.5c0-23.865-6.557-36.433-12.342-47.521    c-5.472-10.489-10.641-20.396-10.641-40.583c0-4.142-3.358-7.5-7.5-7.5s-7.5,3.358-7.5,7.5c0,23.865,6.557,36.433,12.342,47.522    C203.822,117.803,208.99,127.71,208.99,147.897z"/>
		<path style="fill:#333333;" d="M293.901,147.897c0,4.142,3.358,7.5,7.5,7.5s7.5-3.358,7.5-7.5    c0-23.865-6.557-36.433-12.342-47.521c-5.472-10.489-10.641-20.396-10.641-40.583c0-4.142-3.358-7.5-7.5-7.5s-7.5,3.358-7.5,7.5    c0,23.865,6.557,36.433,12.342,47.522C288.733,117.803,293.901,127.71,293.901,147.897z"/>
	</g>
</g>















</svg>
